<mxfile host="app.diagrams.net" agent="Mozilla/5.0 (Windows NT 10.0; Win64; x64) AppleWebKit/537.36 (KHTML, like Gecko) Chrome/130.0.0.0 Safari/537.36" version="24.8.4">
  <diagram name="Page-1" id="04BZZRllFa8FN8NvOazB">
    <mxGraphModel dx="1050" dy="522" grid="0" gridSize="10" guides="1" tooltips="1" connect="1" arrows="1" fold="1" page="1" pageScale="1" pageWidth="850" pageHeight="1100" background="#f6efef" math="0" shadow="0">
      <root>
        <mxCell id="0" />
        <mxCell id="1" parent="0" />
        <mxCell id="7LiO-VV468Msnz8Isfxp-1" value="" style="image;sketch=0;aspect=fixed;html=1;points=[];align=center;fontSize=12;image=img/lib/mscae/DNS.svg;" vertex="1" parent="1">
          <mxGeometry x="524" y="36" width="90" height="90" as="geometry" />
        </mxCell>
        <mxCell id="7LiO-VV468Msnz8Isfxp-4" value="" style="image;sketch=0;aspect=fixed;html=1;points=[];align=center;fontSize=12;image=img/lib/mscae/DNS.svg;" vertex="1" parent="1">
          <mxGeometry x="521" y="238" width="89" height="89" as="geometry" />
        </mxCell>
        <mxCell id="7LiO-VV468Msnz8Isfxp-5" value="" style="sketch=0;outlineConnect=0;fontColor=#232F3E;gradientColor=none;fillColor=#232F3D;strokeColor=none;dashed=0;verticalLabelPosition=bottom;verticalAlign=top;align=center;html=1;fontSize=12;fontStyle=0;aspect=fixed;pointerEvents=1;shape=mxgraph.aws4.client;" vertex="1" parent="1">
          <mxGeometry x="22" y="231" width="101.5" height="98.9" as="geometry" />
        </mxCell>
        <mxCell id="7LiO-VV468Msnz8Isfxp-7" value="" style="endArrow=classic;html=1;rounded=0;entryX=0;entryY=0.25;entryDx=0;entryDy=0;entryPerimeter=0;" edge="1" parent="1" target="7LiO-VV468Msnz8Isfxp-20">
          <mxGeometry width="50" height="50" relative="1" as="geometry">
            <mxPoint x="126.5" y="256" as="sourcePoint" />
            <mxPoint x="262" y="254" as="targetPoint" />
          </mxGeometry>
        </mxCell>
        <mxCell id="7LiO-VV468Msnz8Isfxp-8" value="" style="endArrow=classic;html=1;rounded=0;" edge="1" parent="1">
          <mxGeometry width="50" height="50" relative="1" as="geometry">
            <mxPoint x="411" y="260" as="sourcePoint" />
            <mxPoint x="517" y="260" as="targetPoint" />
          </mxGeometry>
        </mxCell>
        <mxCell id="7LiO-VV468Msnz8Isfxp-9" value="" style="endArrow=classic;html=1;rounded=0;" edge="1" parent="1">
          <mxGeometry width="50" height="50" relative="1" as="geometry">
            <mxPoint x="517.5" y="311" as="sourcePoint" />
            <mxPoint x="410.5" y="311" as="targetPoint" />
          </mxGeometry>
        </mxCell>
        <mxCell id="7LiO-VV468Msnz8Isfxp-10" value="" style="endArrow=classic;html=1;rounded=0;" edge="1" parent="1">
          <mxGeometry width="50" height="50" relative="1" as="geometry">
            <mxPoint x="278" y="306" as="sourcePoint" />
            <mxPoint x="129" y="306" as="targetPoint" />
          </mxGeometry>
        </mxCell>
        <mxCell id="7LiO-VV468Msnz8Isfxp-11" value="" style="endArrow=classic;html=1;rounded=0;dashed=1;entryX=0.509;entryY=0.962;entryDx=0;entryDy=0;entryPerimeter=0;exitX=0.515;exitY=0.018;exitDx=0;exitDy=0;exitPerimeter=0;" edge="1" parent="1" source="7LiO-VV468Msnz8Isfxp-4" target="7LiO-VV468Msnz8Isfxp-23">
          <mxGeometry width="50" height="50" relative="1" as="geometry">
            <mxPoint x="598.99" y="315.99" as="sourcePoint" />
            <mxPoint x="596" y="149" as="targetPoint" />
          </mxGeometry>
        </mxCell>
        <mxCell id="7LiO-VV468Msnz8Isfxp-12" value="" style="endArrow=classic;html=1;rounded=0;dashed=1;" edge="1" parent="1">
          <mxGeometry width="50" height="50" relative="1" as="geometry">
            <mxPoint x="565" y="327" as="sourcePoint" />
            <mxPoint x="565" y="411" as="targetPoint" />
          </mxGeometry>
        </mxCell>
        <mxCell id="7LiO-VV468Msnz8Isfxp-13" value="DNS Lookup&amp;nbsp;&lt;div&gt;cisproject&lt;span style=&quot;background-color: initial;&quot;&gt;.com&lt;/span&gt;&lt;/div&gt;" style="text;html=1;align=center;verticalAlign=middle;resizable=0;points=[];autosize=1;strokeColor=none;fillColor=none;" vertex="1" parent="1">
          <mxGeometry x="153" y="216" width="95" height="41" as="geometry" />
        </mxCell>
        <mxCell id="7LiO-VV468Msnz8Isfxp-14" value="1" style="text;html=1;align=center;verticalAlign=middle;resizable=0;points=[];autosize=1;strokeColor=none;fillColor=none;" vertex="1" parent="1">
          <mxGeometry x="188" y="257" width="25" height="26" as="geometry" />
        </mxCell>
        <mxCell id="7LiO-VV468Msnz8Isfxp-15" value="10.0.20.2" style="text;html=1;align=center;verticalAlign=middle;resizable=0;points=[];autosize=1;strokeColor=none;fillColor=none;" vertex="1" parent="1">
          <mxGeometry x="166.5" y="285" width="68" height="26" as="geometry" />
        </mxCell>
        <mxCell id="7LiO-VV468Msnz8Isfxp-16" value="DNS Lookup&lt;div&gt;cisproject.com&lt;/div&gt;" style="text;html=1;align=center;verticalAlign=middle;resizable=0;points=[];autosize=1;strokeColor=none;fillColor=none;" vertex="1" parent="1">
          <mxGeometry x="416.5" y="218" width="95" height="41" as="geometry" />
        </mxCell>
        <mxCell id="7LiO-VV468Msnz8Isfxp-20" value="" style="sketch=0;points=[[0.015,0.015,0],[0.985,0.015,0],[0.985,0.985,0],[0.015,0.985,0],[0.25,0,0],[0.5,0,0],[0.75,0,0],[1,0.25,0],[1,0.5,0],[1,0.75,0],[0.75,1,0],[0.5,1,0],[0.25,1,0],[0,0.75,0],[0,0.5,0],[0,0.25,0]];verticalLabelPosition=bottom;html=1;verticalAlign=top;aspect=fixed;align=center;pointerEvents=1;shape=mxgraph.cisco19.rect;prIcon=load_balancer;fillColor=#FAFAFA;strokeColor=#005073;" vertex="1" parent="1">
          <mxGeometry x="275" y="231" width="131.84" height="103" as="geometry" />
        </mxCell>
        <mxCell id="7LiO-VV468Msnz8Isfxp-22" value="2" style="text;html=1;align=center;verticalAlign=middle;resizable=0;points=[];autosize=1;strokeColor=none;fillColor=none;" vertex="1" parent="1">
          <mxGeometry x="451.5" y="257" width="25" height="26" as="geometry" />
        </mxCell>
        <mxCell id="7LiO-VV468Msnz8Isfxp-23" value="Secondary DNS Server" style="text;html=1;align=center;verticalAlign=middle;resizable=0;points=[];autosize=1;strokeColor=none;fillColor=none;" vertex="1" parent="1">
          <mxGeometry x="494" y="125" width="143" height="26" as="geometry" />
        </mxCell>
        <mxCell id="7LiO-VV468Msnz8Isfxp-24" value="Primary&amp;nbsp; DNS Server" style="text;html=1;align=center;verticalAlign=middle;resizable=0;points=[];autosize=1;strokeColor=none;fillColor=none;" vertex="1" parent="1">
          <mxGeometry x="511.5" y="327" width="130" height="26" as="geometry" />
        </mxCell>
        <mxCell id="7LiO-VV468Msnz8Isfxp-25" value="Zone Transfer" style="text;html=1;align=center;verticalAlign=middle;resizable=0;points=[];autosize=1;strokeColor=none;fillColor=none;" vertex="1" parent="1">
          <mxGeometry x="564" y="184" width="93" height="26" as="geometry" />
        </mxCell>
        <mxCell id="7LiO-VV468Msnz8Isfxp-26" value="10.0.20.2" style="text;html=1;align=center;verticalAlign=middle;resizable=0;points=[];autosize=1;strokeColor=none;fillColor=none;" vertex="1" parent="1">
          <mxGeometry x="430" y="285" width="68" height="26" as="geometry" />
        </mxCell>
        <mxCell id="7LiO-VV468Msnz8Isfxp-27" value="3" style="text;html=1;align=center;verticalAlign=middle;resizable=0;points=[];autosize=1;strokeColor=none;fillColor=none;" vertex="1" parent="1">
          <mxGeometry x="451" y="307" width="25" height="26" as="geometry" />
        </mxCell>
        <mxCell id="7LiO-VV468Msnz8Isfxp-28" value="4" style="text;html=1;align=center;verticalAlign=middle;resizable=0;points=[];autosize=1;strokeColor=none;fillColor=none;" vertex="1" parent="1">
          <mxGeometry x="187" y="306" width="25" height="26" as="geometry" />
        </mxCell>
        <mxCell id="7LiO-VV468Msnz8Isfxp-29" value="Zone Transfer" style="text;html=1;align=center;verticalAlign=middle;resizable=0;points=[];autosize=1;strokeColor=none;fillColor=none;" vertex="1" parent="1">
          <mxGeometry x="565" y="358" width="93" height="26" as="geometry" />
        </mxCell>
        <mxCell id="7LiO-VV468Msnz8Isfxp-38" value="cisproject.com&lt;span style=&quot;background-color: initial;&quot;&gt;---- 10.0.20.2&lt;/span&gt;" style="rounded=0;whiteSpace=wrap;html=1;" vertex="1" parent="1">
          <mxGeometry x="644" y="51" width="193" height="60" as="geometry" />
        </mxCell>
        <mxCell id="7LiO-VV468Msnz8Isfxp-40" value="Client" style="text;html=1;align=center;verticalAlign=middle;resizable=0;points=[];autosize=1;strokeColor=none;fillColor=none;" vertex="1" parent="1">
          <mxGeometry x="35" y="331" width="49" height="26" as="geometry" />
        </mxCell>
        <mxCell id="7LiO-VV468Msnz8Isfxp-41" value="cisproject.com&lt;span style=&quot;background-color: initial;&quot;&gt;---- 10.0.20.2&lt;/span&gt;" style="rounded=0;whiteSpace=wrap;html=1;" vertex="1" parent="1">
          <mxGeometry x="644" y="264" width="193" height="60" as="geometry" />
        </mxCell>
      </root>
    </mxGraphModel>
  </diagram>
</mxfile>
